<?xml version="1.0" encoding="utf-8"?>
<!-- Generator: Adobe Illustrator 15.0.2, SVG Export Plug-In . SVG Version: 6.00 Build 0)  -->
<!DOCTYPE svg PUBLIC "-//W3C//DTD SVG 1.1//EN" "http://www.w3.org/Graphics/SVG/1.1/DTD/svg11.dtd">
<svg version="1.1" id="Capa_1" xmlns="http://www.w3.org/2000/svg" xmlns:xlink="http://www.w3.org/1999/xlink" x="0px" y="0px"
	 width="224.351px" height="158.361px" viewBox="0 0 224.351 158.361" enable-background="new 0 0 224.351 158.361"
	 xml:space="preserve">
<g>
	<path fill="#BCE4E8" d="M51.008,106.038c-0.401-0.014-0.789,0.085-1.111,0.322c-0.918,0.671-0.978,2.147-0.137,3.296l2.209,3.011
		c0.842,1.149,2.267,1.536,3.184,0.864c0.337-0.247,0.557-0.604,0.659-1.013c13.304,15.299,33.743,20.408,48.728,11.124
		c0,0,0.477-0.235,1.305-0.864c6.582-4.557,10.953-11.399,12.943-19.269c1.211-2.854,2.418-6.083,3.582-9.762
		c1.066-3.365,2.646-5.87,12.199-7.109c4.035-0.524,18.427-6.929,7.539-14.427c-2.404-1.655-8.961-3.521-7.905-8.977l49.875-31.806
		c0,0,3.047-0.785,5.523,0.718c0,0,1.025-0.507,2.65-1.318c-0.125,0.61-0.031,1.266,0.322,1.837c0.734,1.186,2.293,1.553,3.48,0.818
		c1.186-0.735,1.551-2.294,0.816-3.48c-0.268-0.432-0.645-0.751-1.072-0.952c0.902-0.455,1.861-0.938,2.852-1.441
		c0.016,0.424,0.127,0.85,0.367,1.236c0.734,1.187,2.293,1.552,3.479,0.817c1.188-0.735,1.553-2.293,0.818-3.479
		c-0.16-0.26-0.367-0.472-0.594-0.651c0.984-0.506,1.959-1.01,2.902-1.502c-0.297,0.724-0.26,1.572,0.182,2.287
		c0.736,1.187,2.295,1.554,3.482,0.818c1.186-0.735,1.551-2.293,0.816-3.479c-0.377-0.608-0.969-0.997-1.617-1.136
		c1.471-0.786,2.762-1.494,3.727-2.055c0,0,1.547,0.185,0.652-3.4c0,0-0.736-2.362,0.189-5.144c0,0,0.639-5.346-4.873-7.373
		c0,0-2.686-0.347-4.488-2.543c0,0-2.629-1.762-5.094,0.1c-0.053-0.313-0.162-0.622-0.34-0.908c-0.736-1.187-2.293-1.553-3.48-0.817
		c-1.188,0.734-1.553,2.292-0.818,3.479c0.301,0.484,0.74,0.823,1.234,1.015c-0.803,0.633-1.805,1.413-2.994,2.328
		c-0.051-0.327-0.164-0.648-0.35-0.947c-0.734-1.187-2.293-1.553-3.479-0.817c-1.188,0.735-1.553,2.293-0.818,3.479
		c0.277,0.447,0.672,0.776,1.117,0.976c-0.771,0.583-1.615,1.216-2.498,1.876c-0.053-0.307-0.162-0.61-0.336-0.891
		c-0.734-1.187-2.293-1.553-3.479-0.817c-1.188,0.735-1.553,2.293-0.818,3.479c0.256,0.411,0.613,0.717,1.016,0.919
		c-0.67,0.496-1.357,1.002-2.08,1.534c0,0-0.598,4.026-2.684,5.29l-39.27,23.764c-1.031-2.51-6.896-14.941-21.458-13.613
		c-7.521,0.687-12.783,6.429-14.469,10.839c-1.648,4.313-9.941,5.467-18.025,3.989c-8.914-2.299-18.104-1.353-25.84,3.44
		c-17.014,10.542-20.555,35.639-7.904,56.057C50.885,105.854,50.948,105.943,51.008,106.038z"/>
	<path fill="#BCE4E8" d="M222.767,124.918c-24.371,23.375-50.549,30.996-63.816,26.441c-2.918-1.002-6.521-3.079-7.137-7.289
		c-0.906-6.215,5.094-14.438,16.461-22.557c27.832-19.882,40.803-33.525,38.553-40.55c-0.811-2.531-3.5-3.924-7.568-3.924
		c-12.475,0-28.104,11.513-64.314,47.382c-35.717,35.381-81.873,33.253-95.227,29.717c-12.402-3.282-19.285-7.748-19.908-12.914
		c-0.511-4.245,3.005-8.537,6.824-11.87l1.426,1.962l9.568-6.944l-1.25-1.721l8.098-5.511c0.553-0.375,0.531-1.364-0.045-2.208
		c-0.574-0.844-1.488-1.225-2.041-0.851l-8.188,5.572l-1.161-1.598l-9.568,6.945l1.812,2.493c-4.296,3.74-8.376,8.758-7.747,14.001
		c0.754,6.264,8.02,11.262,21.596,14.856c4.422,1.17,10.703,2.008,18.227,2.008c7.141,0,15.4-0.755,24.252-2.696
		c14.676-3.219,36.123-10.97,54.945-29.615c35.705-35.368,50.939-46.72,62.703-46.72c1.732,0,4.738,0.304,5.389,2.334
		c0.867,2.705-1.072,11.821-37.705,37.989c-12.266,8.763-18.443,17.552-17.395,24.75c0.609,4.175,3.686,7.415,8.658,9.122
		c2.643,0.908,5.777,1.39,9.314,1.39c14.525-0.001,35.764-8.136,56.83-28.344L222.767,124.918z"/>
	<polygon fill="#BCE4E8" points="21.908,101.994 24.473,115.553 26.473,91.661 21.473,95.661 19.807,77.994 10.807,89.327 
		18.141,105.758 	"/>
	<polygon fill="#BCE4E8" points="7.715,109.765 7.639,113.109 0,107.85 1.52,115.258 10.564,117.834 10.32,115.062 16.615,118.583 	
		"/>
</g>
</svg>
