<?xml version="1.0" encoding="utf-8"?>
<!-- Generator: Adobe Illustrator 15.0.2, SVG Export Plug-In . SVG Version: 6.00 Build 0)  -->
<!DOCTYPE svg PUBLIC "-//W3C//DTD SVG 1.1//EN" "http://www.w3.org/Graphics/SVG/1.1/DTD/svg11.dtd">
<svg version="1.1" id="Capa_1" xmlns="http://www.w3.org/2000/svg" xmlns:xlink="http://www.w3.org/1999/xlink" x="0px" y="0px"
	 width="420.304px" height="82px" viewBox="0 0 420.304 82" enable-background="new 0 0 420.304 82" xml:space="preserve">
<g>
	<path fill="#333333" d="M126.915,24.654c0.592,0.467,0.573,0.601,0.72,1.094c0.673,2.252,1.379,4.58,2.119,6.982
		c0.903,2.932,1.841,5.86,2.817,8.793c0.978,2.93,1.955,5.813,2.932,8.641c0.978,2.832,1.916,5.498,2.817,8.004
		c0.753-2.705,1.478-5.647,2.182-8.829c0.699-3.181,1.401-6.486,2.104-9.919c0.7-3.432,1.389-6.926,2.065-10.483
		c0.559-2.938,1.09-5.842,1.598-8.712c0.034-0.19,0.123-0.877,0.794-1.38c0.586-0.439,1.246-0.427,1.246-0.427h5.733
		c0,0,0.881,0.024,1.403,0.846c0.515,0.807,0.232,1.667,0.178,1.948c-1.626,8.518-3.419,16.734-5.378,24.648
		c-2.029,8.201-4.052,15.809-6.501,23.289c-0.147,0.448-0.268,0.635-0.621,0.946c-0.424,0.374-1.267,0.396-1.267,0.396h-6.344
		c0,0-0.797,0-1.208-0.383c-0.306-0.287-0.416-0.4-0.566-0.793c-3.723-9.797-7.33-20.451-10.822-31.962
		c-1.856,6.062-3.736,11.824-5.643,17.284c-1.767,5.059-3.53,9.962-5.297,14.72c-0.14,0.379-0.282,0.507-0.601,0.754
		c-0.418,0.326-1.132,0.382-1.132,0.382h-6.387c0,0-0.641-0.06-1.104-0.354c-0.307-0.195-0.527-0.514-0.674-0.947
		c-2.521-7.521-4.786-15.393-6.795-23.607c-1.954-8.002-3.782-16.31-5.389-24.936c-0.128-0.67,0.079-1.209,0.534-1.705
		c0.482-0.525,1.354-0.525,1.354-0.525h6.201c0,0,0.686,0.022,1.162,0.395c0.577,0.451,0.672,0.739,0.774,1.31
		c0.513,2.861,1.05,5.774,1.615,8.74c0.675,3.559,1.375,7.053,2.103,10.481c0.726,3.433,1.465,6.751,2.217,9.957
		c0.751,3.207,1.503,6.162,2.255,8.866c0.95-2.555,1.915-5.246,2.893-8.076s1.94-5.711,2.892-8.643s1.866-5.849,2.743-8.756
		c0.732-2.427,1.422-4.785,2.067-7.072c0.126-0.452,0.361-0.686,0.729-0.963c0.462-0.349,1.174-0.379,1.174-0.379h5.165
		C125.775,24.278,126.395,24.244,126.915,24.654z"/>
	<path fill="#333333" d="M168.551,30.215c3.005,0,5.536,0.376,7.589,1.126c2.055,0.752,3.694,1.804,4.923,3.157
		c1.229,1.353,2.104,2.994,2.63,4.92c0.526,1.931,0.789,4.047,0.789,6.351v22.205c0,0,0,0.729-0.38,1.185
		c-0.365,0.432-0.602,0.633-1.203,0.742c-1.264,0.231-2.851,0.49-4.768,0.78c-2.83,0.424-6.023,0.638-9.582,0.638
		c-2.354,0-4.507-0.226-6.461-0.677c-1.954-0.449-3.62-1.176-4.998-2.181c-1.378-1-2.455-2.303-3.23-3.905
		c-0.779-1.604-1.167-3.582-1.167-5.938c0-2.254,0.439-4.156,1.315-5.711c0.876-1.551,2.067-2.815,3.571-3.795
		c1.504-0.977,3.241-1.677,5.222-2.104c1.979-0.424,4.044-0.639,6.198-0.639c1.004,0,2.056,0.063,3.157,0.188
		c1.102,0.125,2.28,0.337,3.533,0.639v-1.504c0-1.052-0.127-2.054-0.376-3.005c-0.253-0.951-0.69-1.791-1.316-2.519
		c-0.627-0.727-1.452-1.288-2.479-1.69c-1.027-0.399-2.318-0.601-3.869-0.601c-2.105,0-4.034,0.149-5.787,0.451
		c-0.788,0.133-1.509,0.278-2.166,0.436c-0.806,0.189-1.267-0.021-1.732-0.355c-0.545-0.39-0.716-1.19-0.716-1.19l-0.534-3.486
		c0,0-0.086-0.789,0.272-1.337c0.281-0.424,0.517-0.712,1.178-0.878c0.929-0.235,2.035-0.469,3.321-0.703
		C163.691,30.414,166.046,30.215,168.551,30.215z M169.302,64.104c2.806,0,4.934-0.149,6.388-0.45v-10.07
		c-0.502-0.149-1.229-0.301-2.181-0.45c-0.952-0.149-2.003-0.226-3.154-0.226c-1.004,0-2.019,0.075-3.044,0.226
		c-1.027,0.149-1.954,0.427-2.781,0.827c-0.826,0.4-1.491,0.965-1.991,1.688c-0.503,0.728-0.752,1.642-0.752,2.743
		c0,2.153,0.678,3.645,2.028,4.473C165.17,63.69,166.998,64.104,169.302,64.104z"/>
	<path fill="#333333" d="M199.701,70.119c-0.338-0.285-0.432-0.424-0.625-0.828c-2.332-4.873-4.716-10.396-7.154-16.571
		c-2.361-5.979-4.492-12.36-6.51-19.108c-0.205-0.683,0.009-1.244,0.383-1.744c0.445-0.602,1.467-0.676,1.467-0.676h5.665
		c0,0,0.649,0.018,1.082,0.34c0.49,0.364,0.661,0.68,0.797,1.202c0.458,1.757,0.969,3.609,1.531,5.56
		c0.728,2.529,1.509,5.061,2.337,7.589c0.831,2.53,1.686,4.985,2.566,7.364s1.697,4.521,2.453,6.425
		c0.753-1.902,1.559-4.046,2.413-6.425s1.698-4.834,2.527-7.364c0.83-2.528,1.622-5.06,2.376-7.589
		c0.597-2.002,1.132-3.9,1.602-5.697c0.125-0.477,0.277-0.656,0.627-0.977c0.461-0.422,1.23-0.428,1.23-0.428h5.34
		c0,0,0.9-0.043,1.499,0.658c0.271,0.316,0.606,0.936,0.376,1.725c-1.982,6.774-4.154,13.155-6.521,19.146
		c-2.437,6.168-4.816,11.686-7.145,16.553c-0.197,0.411-0.344,0.585-0.752,0.909c-0.389,0.31-1.03,0.31-1.03,0.31h-5.324
		C200.912,70.492,200.141,70.492,199.701,70.119z"/>
	<path fill="#333333" d="M220.873,51.029c0-3.457,0.515-6.486,1.541-9.093c1.026-2.604,2.394-4.771,4.097-6.499
		c1.702-1.729,3.655-3.031,5.86-3.908c2.203-0.875,4.457-1.314,6.763-1.314c5.409,0,9.631,1.679,12.661,5.035
		c3.031,3.356,4.546,8.367,4.546,15.029c0,0.502-0.011,1.063-0.036,1.69s-0.288,0.866-0.544,1.162
		c-0.485,0.559-1.293,0.528-1.293,0.528h-24.199c0.25,3.155,1.363,5.597,3.345,7.325c1.979,1.729,4.846,2.593,8.604,2.593
		c2.205,0,4.219-0.201,6.051-0.601c0.846-0.185,1.607-0.376,2.289-0.573c0.789-0.229,1.284,0.112,1.439,0.198
		c0.807,0.44,0.949,1.317,0.949,1.317l0.602,3.719c0,0,0.068,0.721-0.249,1.23c-0.169,0.271-0.378,0.656-0.974,0.86
		c-0.189,0.063-0.39,0.132-0.604,0.195c-0.876,0.276-1.878,0.526-3.004,0.754c-1.128,0.226-2.344,0.412-3.646,0.563
		c-1.302,0.149-2.629,0.225-3.98,0.225c-3.457,0-6.465-0.514-9.018-1.541c-2.555-1.025-4.66-2.453-6.313-4.281
		c-1.654-1.828-2.882-3.982-3.683-6.464C221.275,56.703,220.873,53.985,220.873,51.029z M247.25,46.97
		c0-1.25-0.176-2.44-0.524-3.568c-0.353-1.127-0.864-2.104-1.541-2.93c-0.677-0.827-1.504-1.479-2.479-1.955
		c-0.977-0.476-2.142-0.713-3.494-0.713c-1.403,0-2.631,0.263-3.682,0.789c-1.053,0.526-1.943,1.216-2.668,2.065
		c-0.729,0.854-1.291,1.83-1.689,2.933c-0.402,1.103-0.676,2.229-0.826,3.38L247.25,46.97L247.25,46.97z"/>
	<path fill="#333333" d="M270.707,63.953c2.402,0,4.156-0.287,5.261-0.864c1.101-0.575,1.653-1.563,1.653-2.968
		c0-1.303-0.592-2.379-1.769-3.231c-1.178-0.851-3.118-1.776-5.823-2.78c-1.654-0.601-3.168-1.24-4.547-1.916
		c-1.378-0.677-2.566-1.466-3.568-2.367c-1.002-0.9-1.791-1.99-2.367-3.268c-0.575-1.277-0.864-2.843-0.864-4.695
		c0-3.608,1.328-6.451,3.983-8.531c2.654-2.077,6.263-3.117,10.82-3.117c2.305,0,4.51,0.213,6.611,0.639
		c1.141,0.23,2.126,0.457,2.957,0.68c0.704,0.189,1.04,0.75,1.184,0.965c0.357,0.543,0.207,1.32,0.207,1.32l-0.791,3.528
		c0,0-0.291,0.926-0.922,1.202c-0.458,0.201-0.797,0.402-1.557,0.167c-0.561-0.175-1.168-0.341-1.828-0.499
		c-1.553-0.376-3.357-0.563-5.412-0.563c-1.852,0-3.355,0.313-4.508,0.938c-1.153,0.627-1.729,1.591-1.729,2.893
		c0,0.652,0.112,1.229,0.34,1.729c0.225,0.501,0.611,0.966,1.162,1.39c0.553,0.428,1.278,0.854,2.18,1.278
		c0.902,0.427,2.004,0.864,3.308,1.315c2.152,0.801,3.983,1.59,5.486,2.364c1.501,0.778,2.741,1.654,3.719,2.632
		c0.978,0.977,1.69,2.092,2.142,3.344c0.45,1.252,0.676,2.756,0.676,4.509c0,3.757-1.391,6.601-4.168,8.528
		c-2.78,1.928-6.752,2.895-11.912,2.895c-3.456,0-6.236-0.289-8.342-0.865c-1.078-0.295-1.992-0.561-2.742-0.798
		c-0.715-0.224-1.006-0.634-1.217-1.03c-0.225-0.424-0.084-1.436-0.084-1.436l0.75-3.606c0,0,0.258-0.899,0.887-1.227
		c0.477-0.247,0.931-0.353,1.714-0.097c0.825,0.27,1.721,0.532,2.685,0.791C266.16,63.703,268.302,63.953,270.707,63.953z"/>
	<path fill="#333333" d="M290.141,21.163c0.53-0.559,1.217-0.625,1.217-0.625l5.207-0.86c0,0,0.703-0.123,1.513,0.451
		c0.672,0.475,0.668,1.264,0.668,1.264v9.798h12.016c0,0,0.704-0.014,1.291,0.48c0.646,0.544,0.671,1.397,0.671,1.397v3.809
		c0,0-0.024,0.914-0.554,1.412c-0.573,0.543-1.329,0.492-1.329,0.492h-12.095v16.006c0,3.155,0.5,5.41,1.502,6.763
		s2.705,2.028,5.111,2.028c1.651,0,3.116-0.176,4.395-0.525c0.418-0.115,0.805-0.238,1.169-0.336
		c0.604-0.162,1.146,0.012,1.464,0.213c0.639,0.409,0.813,1.07,0.813,1.07l0.732,3.516c0,0,0.081,0.793-0.053,1.225
		c-0.188,0.603-0.514,0.928-1.063,1.119c-0.771,0.271-1.653,0.542-2.646,0.82c-1.704,0.475-3.709,0.713-6.012,0.713
		c-2.807,0-5.148-0.376-7.026-1.127c-1.88-0.752-3.368-1.842-4.472-3.27c-1.104-1.429-1.879-3.156-2.328-5.186
		c-0.453-2.027-0.678-4.346-0.678-6.95V22.466C289.652,22.468,289.682,21.646,290.141,21.163z"/>
	<path fill="#333333" d="M330.832,30.215c3.007,0,5.534,0.376,7.589,1.126c2.055,0.752,3.695,1.804,4.922,3.157
		c1.227,1.353,2.105,2.994,2.631,4.92c0.525,1.931,0.79,4.047,0.79,6.351v22.188c0,0,0,0.685-0.354,1.16
		c-0.258,0.347-0.553,0.657-1.103,0.76c-1.281,0.236-2.912,0.505-4.894,0.804c-2.832,0.424-6.023,0.637-9.581,0.637
		c-2.356,0-4.508-0.225-6.463-0.676c-1.953-0.449-3.619-1.176-4.996-2.181c-1.379-1-2.457-2.303-3.23-3.905
		c-0.777-1.604-1.166-3.582-1.166-5.938c0-2.254,0.438-4.156,1.314-5.711c0.877-1.551,2.067-2.815,3.57-3.795
		c1.502-0.977,3.242-1.677,5.223-2.104c1.979-0.424,4.045-0.639,6.197-0.639c1.004,0,2.054,0.063,3.156,0.188
		s2.28,0.337,3.534,0.639v-1.504c0-1.052-0.128-2.054-0.378-3.005c-0.251-0.95-0.688-1.791-1.313-2.519
		c-0.627-0.727-1.453-1.288-2.479-1.69c-1.028-0.399-2.317-0.601-3.87-0.601c-2.104,0-4.035,0.149-5.787,0.451
		c-0.835,0.143-1.597,0.297-2.284,0.463c-0.756,0.183-1.17-0.045-1.605-0.359c-0.602-0.434-0.727-1.229-0.727-1.229l-0.529-3.465
		c0,0-0.129-0.671,0.25-1.328c0.256-0.445,0.547-0.729,1.217-0.898c0.923-0.23,2.025-0.464,3.306-0.697
		C325.972,30.414,328.324,30.215,330.832,30.215z M331.583,64.104c2.806,0,4.934-0.149,6.388-0.45v-10.07
		c-0.503-0.149-1.229-0.301-2.18-0.45c-0.953-0.149-2.004-0.226-3.156-0.226c-1.003,0-2.019,0.075-3.043,0.226
		c-1.027,0.149-1.954,0.427-2.781,0.825c-0.827,0.402-1.491,0.967-1.991,1.69c-0.5,0.728-0.75,1.642-0.75,2.743
		c0,2.153,0.676,3.645,2.027,4.473C327.451,63.69,329.277,64.104,331.583,64.104z"/>
	<path fill="#333333" d="M349.933,50.88c0-2.906,0.451-5.624,1.354-8.154c0.901-2.528,2.191-4.722,3.869-6.575
		c1.678-1.853,3.721-3.307,6.125-4.359c2.403-1.051,5.108-1.577,8.114-1.577c3.097,0,6.054,0.472,8.87,1.415
		c0.555,0.186,0.843,0.533,1.072,0.974c0.281,0.538,0.135,1.33,0.135,1.33l-0.979,3.731c0,0-0.235,0.808-0.821,1.133
		c-0.429,0.234-0.905,0.414-1.563,0.212c-0.543-0.166-1.115-0.318-1.716-0.453c-1.327-0.302-2.741-0.452-4.246-0.452
		c-3.557,0-6.263,1.116-8.114,3.346c-1.854,2.228-2.781,5.371-2.781,9.431c0,3.905,0.877,7,2.631,9.278
		c1.753,2.28,4.709,3.42,8.865,3.42c1.555,0,3.082-0.149,4.586-0.451c0.654-0.131,1.271-0.275,1.852-0.436
		c0.749-0.207,1.211,0.038,1.633,0.248c0.665,0.334,0.801,1.27,0.801,1.27l0.627,3.699c0,0,0.08,0.702-0.129,1.174
		c-0.195,0.437-0.543,0.85-1.152,1.045c-0.827,0.264-1.824,0.511-2.99,0.74c-2.027,0.399-4.121,0.601-6.273,0.601
		c-3.356,0-6.274-0.515-8.754-1.541c-2.481-1.025-4.535-2.453-6.164-4.281s-2.844-4.008-3.646-6.538
		C350.336,56.578,349.933,53.834,349.933,50.88z"/>
	<path fill="#333333" d="M392.245,46.521c1.151-1.2,2.379-2.491,3.683-3.87c1.302-1.377,2.58-2.755,3.833-4.133
		c1.251-1.377,2.441-2.705,3.568-3.982c0.862-0.979,1.633-1.863,2.307-2.652c0.203-0.239,0.385-0.37,0.709-0.527
		c0.326-0.158,0.943-0.166,0.943-0.166h5.358c0,0,1.138,0.01,1.697,0.982c0,0,0.685,1.174-0.19,2.152
		c-1.633,1.83-3.343,3.681-5.096,5.582c-2.773,3.004-5.561,5.937-8.359,8.793c1.5,1.252,3.073,2.769,4.725,4.545
		c1.648,1.777,3.248,3.67,4.798,5.674c1.551,2.004,2.999,4.009,4.351,6.011c0.607,0.903,1.17,1.778,1.689,2.621
		c0.629,1.024,0.092,1.938-0.211,2.327c-0.52,0.66-1.457,0.613-1.457,0.613h-6.025c0,0-0.547,0.026-1.039-0.268
		c-0.299-0.178-0.459-0.338-0.645-0.646c-0.771-1.273-1.629-2.599-2.578-3.974c-1.178-1.702-2.443-3.354-3.794-4.958
		c-1.354-1.604-2.729-3.12-4.132-4.548c-1.405-1.426-2.783-2.642-4.135-3.644V68.55c0,0,0,0.729-0.508,1.317
		c-0.551,0.631-1.398,0.619-1.398,0.619h-5.227c0,0-0.713,0.064-1.468-0.604c-0.498-0.443-0.491-1.345-0.491-1.345v-53.25
		c0,0,0-0.58,0.426-1.171c0.488-0.677,1.363-0.731,1.363-0.731l5.105-0.845c0,0,0.738-0.129,1.505,0.474
		c0.676,0.534,0.69,1.338,0.69,1.338L392.245,46.521L392.245,46.521z"/>
</g>
<path fill="#7D30B6" d="M18.565,37.941l3.02,5.604c1.396,2.599,3.502,2.508,4.673-0.199l13.107-26.27
	c1.172-2.708,2.816-2.609,3.656,0.22l11.425,34.514c0.837,2.829,2.395,2.893,3.458,0.141l5.01-12.957
	c1.063-2.752,4.348-5.004,7.298-5.004h0.465h4.772V13.632c0-3.457-2.802-6.259-6.258-6.259H12.455c-3.457,0-6.259,2.802-6.259,6.259
	v19.586h4.46C13.607,33.218,17.167,35.345,18.565,37.941z"/>
<path fill="#009EE2" d="M73.147,39.779c-2.229,0-4.933,2.25-6.004,4.997L56.956,70.871c-1.072,2.75-2.759,2.723-3.746-0.06
	L42.135,39.623c-0.987-2.78-2.881-2.898-4.208-0.264l-10.614,21.1c-1.328,2.638-3.441,2.608-4.696-0.061L14.833,43.86
	c-1.257-2.671-4.281-4.854-6.722-4.854H6.198v31.36c0,3.457,2.801,6.26,6.258,6.26h56.738c3.455,0,6.257-2.803,6.257-6.26V39.779
	H73.147L73.147,39.779z"/>
</svg>
